<?xml version="1.0" encoding="utf-8"?>
<svg version="1.1" id="Layer_1" xmlns="http://www.w3.org/2000/svg" xmlns:xlink="http://www.w3.org/1999/xlink" x="0px" y="0px"
	 viewBox="0 0 2690.995 1077.506" style="enable-background:new 0 0 2690.995 1077.506;" xml:space="preserve">
<g>
	<path d="M2386.065,78.142c17.334-6.184,13.712,7.536,15.894,21.902c1.644,10.825,4.131,1.901,56.961,9.25
		c19.578,2.723,12.117,18.464,28.033,27.821c10.752,6.321,15.031,32.34,28.597,44.314c3.947,3.484,3.373,8.3,14.769,40.289
		c2.916,8.184,8.213,17.059,4.699,25.993c-10.081,25.626-63.608,13.858-70.953,40.365c-7.955,28.709-3.918,57.294-7.87,116.631
		c-3.16,47.453,15.219,33.444,64.487,35.9c11.236,0.56,17.471,9.485,14.1,20.134c-0.095,0.301,6.46,171.055,6.369,172.298
		c-1.124,15.303,45.989,36.946,33.204,22.798c-14.195-15.708-18.183-39.293-1.362-57.883c7.253-8.016,23.264-2.948,25.94-3.186
		c33.36-2.969,33.197,51.022,11.183,60.053c-5.294,2.172-11.275,3.461-13.272,10.88c-1.104,4.098-6.741,4.721-10.969,3.979
		c-13.337-2.339-27.417-1.332-39.588-9.163c-3.141-2.021-4.137,0.287-3.587,3.559c4.066,24.202,2.962,35.344,4.557,142.085
		c0.124,8.309,2.576,17.544-4.502,23.449c-12.413,10.355-88.49,13.444-98.872,22.875c-16.504,14.992-31.852,2.576-58.498,9.458
		c-101.893,26.314-153.049,24.537-243.024,18.829c-12.101-0.767-8.985,6.409-10.862,8.28c-5.368,5.353-8.302,13.476-12.819,19.629
		c-43.205,58.85-132.693,71.518-193.954,20.966c-7.406-6.111-12.87-14.403-20.152-20.394c-7.25-5.966-7.922-1.612-10.923,6.431
		c-8.477,22.722-53.865,77.911-104.863,85.695c-101.573,15.503-176.165-71.829-177.346-156.109
		c-0.166-11.882-19.159,2.238-28.286-18.922c-1.773-4.112-16.547-2.44-26.182-3.032c-13.914-0.856-3.729,31.13-39.585,26.959
		c-0.001,0-482.058-23.813-482.06-23.813c-12.326-0.542-12.419,9.948-18.849,19.366c-53.817,78.832-183.491,79.799-226.229,2.099
		c-3.992-7.257-9.466-26.747-20.988-24.131c-6.342,1.44-8.237,9.34-9.436,15.732c-13.38,71.36-91.132,112.637-159.679,102.945
		c-34.062-4.816-80.702-25.71-95.277-59.452c-51.444-119.097,60.219-75.206-242.161-95.283
		c-63.526-4.218-165.712-9.613-183.291-10.148c-18.08-0.55-14.25-11.114-11.832-37.963c6.866-76.236,8.136-74.155,4.367-81.508
		c-0.795-1.552-0.055-3.322,0.753-4.923c3.158-6.251,17.699-148.271,14.522-157.246c-0.665-1.877-0.691-4.007,0.171-5.789
		c5.385-11.133,2.873-23.441,5.311-35.007c0.945-4.482-3.767-7.264-1.87-12.734c3.981-11.483,3.583-23.613,4.68-35.463
		c13.041-140.917,14.753-187.008,59.292-226.971c23.195-20.811,57.773-31.143,83.022-28.545c0,0,112.771-2.959,135.211-3.173
		c80.374-0.767,49.944-3.648,74.053-6.976c17.369-2.398,34.901-2.613,52.062-0.371c20.097,2.626,40.105,1.328,60.142,1.963
		c8.943,0.283-0.858-8.825,14.401-10.311c20.295-1.977,40.643-1.422,60.979-1.468c66.767-0.149,69.041-1.504,74.672,6.07
		c1.656,2.228,4.662,2.779,7.385,2.625c60.099-3.403,222.827-4.685,338.566-8.724c17.108-0.597,19.923-0.758,21.173-6.248
		c1.021-4.485,6.253-5.247,10.464-5.242c1.474,0.001,133.933-5.698,138.297,2.511c2.809,5.285,7.363,4.893,11.961,4.571
		c0.122-0.009,407.762-10.309,407.762-10.309c9.662,0.562-1.674-10.656,17.411-11.586c82.138-4.005,125.626-0.145,129.425-0.001
		c18.717,0.71,9.101,8.891,19.453,8.617c0.003,0,97.823-1.461,97.823-1.461c22.213-0.244,21.631-8.464,36.602-8.736
		c0.809-0.015,137.955,7.273,261.945,4.137c27.661-0.7,64.07-5.868,85.696-3.276c11.202,1.343,22.398-1.932,33.674-0.98
		c0.646,0.055,1.546,0.089,1.682-0.89c0.329-2.357-10.837-5.874-6.339-16.057c2.813-6.368,21.945-19.546,26.902-4.013
		c0.944,2.958,2.249,3.349,4.563,1.163c4.08-3.853,9.886-4.404,14.547-7.437c9.017-5.868,12.952,7.587,17.886,2.162
		c-0.492,0.883,0.579,1.033,0.436,0.265C2386.489,77.3,2386.891,78.673,2386.065,78.142z M1546.464,282.618
		c-1.103,23.227-1.879,134.804,2.322,143.957c4.497,9.796,0.856,7.175,154.621,9.504c43.335,0.656,87.324,3.684,130.562,0.963
		c17.414-1.072,15.893-2.486,15.632-124.137c-0.026-12.192,4.428-37.33-14.492-37.33
		C1527.862,275.535,1546.876,273.925,1546.464,282.618z M1508.766,311.897c-0.032-23.32,8.197-35.912-16.152-35.796
		c-189.682,0.9-174.151-5.583-176.007,19.946c-0.226,3.105,0.058,120.212,4.223,128.971c5.133,10.796,18.092,7.382,27.721,6.974
		c22.448-0.951,38.556,0.97,108.97,0.993c31.772,0.01,50.769,8.423,50.848-18.293
		C1508.47,380.455,1508.812,345.778,1508.766,311.897z M2420.279,424.898c8.135-87.944-60.313-164.648-150.606-157.223
		c-8.856,0.728-17.979,2.261-26.957,3.631c-11.233,1.714-11.774,2.173-10.884,14.108c8.48,113.716,0.31,137.173,9.946,148.764
		c9.374,11.272,13.99,6.557,154.288,3.751C2409.6,437.703,2418.827,440.598,2420.279,424.898z M1934.903,362.79
		c0.495,61.944-1.303,66.657,6.262,71.202c7.412,4.453,8.544,4.116,136.927,1.103c9.951-0.233,20.93,3.557,20.011-38.256
		c-1.831-83.311-85.573-115.745-157.285-117.265c-4.737-0.1-5.641,1.67-5.712,5.961
		C1935.106,285.537,1934.903,362.79,1934.903,362.79z M959.11,411.351c-0.092,16.769,15.076,14.577,89.974,14.822
		c36.582,0.12,11.912-28.402,18.491-127.816c1.593-23.007-9.455-18.142-78.423-18.507
		C943.983,279.606,959.877,279.017,959.11,411.351z M925.21,353.473c0.038,0,0.076,0,0.113,0c0-66.206,2.21-67.566-4.81-70.325
		c-3.417-1.343-2.046-0.975-58.803-1.157c-8.87-0.028-39.289-5.373-43.329,5.865c-2.451,6.817-0.906,15.377-1.202,22.526
		c-3.748,90.763-11.675,112.224,15.389,112.744c91.322,1.754,92.567,2.63,92.613-8.599
		C925.266,394.176,925.21,373.825,925.21,353.473z M1195.811,406.067c0.098,21.504,4.174,18.263,52.729,25.969
		c45.584,7.235,39.027,15.168,39.482-92.855c0.223-52.866,4.677-62.226-19.89-62.074c-56.294,0.348-60.048-1.595-68.405,2.916
		C1193.381,283.46,1195.234,279.017,1195.811,406.067z M698.914,308.985c0.953-16.698,2.098-24.491-13.933-24.359
		c-97.477,0.799-59.455-23.51-69.639,122.699c-1.243,17.875,24.492,23.104,37.904,24.117c44.87,3.389,45.767-7.132,46.259-21.875
		C700.622,376.063,697.004,342.406,698.914,308.985z M1112.089,278.825c-14.737,0.495-19.839,4.625-19.112,21.454
		c5.153,119.293,3.046,113.477,5.829,120.622c6.17,15.842,48.261,18.459,61.675-2.993c5.607-8.967,2.986-22.562,3.043-32.867
		C1164.226,258.404,1168.949,276.914,1112.089,278.825z M755.999,431.822c25.981,0.85,32.164,3.984,32.464-13.601
		c2.086-122.338,3.745-136.337-13.25-135.507c-35.065,1.713-43.115-6.015-43.149,12.658
		C731.72,442.807,727.299,430.883,755.999,431.822z M315.133,296.217c0-7.352-0.515-9.894-7.202-9.724
		c-55.068,1.403-48.863-2.483-48.852,20.921c0.018,37.264,0.31,74.321,1.687,111.433c0.654,17.573,33.474,10.491,43.403,8.483
		c14.117-2.855,12.467-9.601,13.153-23.37C319.098,368.337,315.141,332.102,315.133,296.217z M408.547,291.354
		c-0.45-7.099-1.185-7.213-50.411-5.823c-11.678,0.33-3.139,7.606-4.599,130.559c-0.084,7.072,0.888,7.649,8.204,8.039
		c13.672,0.73,27.319-1.54,40.991-0.233c8.165,0.781,5.466-11.606,5.26-18.113C407.945,404.274,410.355,319.891,408.547,291.354z
		 M589.399,334.439c-0.09-8.331,1.487-18.845-1.851-26.699c-8.682-20.426-55.76,40.384-70.436,101.904
		c-5.482,22.981,6.974,15.388,61.673,13.676C597.901,422.722,590.291,416.571,589.399,334.439z M2165.102,422.458
		c-0.057,4.771,1.521,6.533,6.288,6.476c53.412-0.643,34.367,27.119,36.663-145.454c0.071-5.333-0.435-9.211-35.108,2.418
		c-2.282,0.765-4.261,2.377-4.629,5.119C2161.614,340.917,2166.121,337.419,2165.102,422.458z M206.154,359.74
		c-0.019,0-0.038,0-0.056,0c0-72.48,3.146-74.805-10.649-70.968c-10.646,2.961-19.556,9.244-26.873,17.567
		c-2.402,2.732-4.832,22.259-5.082,24.974c-8.166,88.769-13.964,103.112,4.619,101.021
		C215.285,427.026,206.154,452.269,206.154,359.74z"/>
</g>
</svg>
